<mxfile host="app.diagrams.net" modified="2023-07-30T17:46:00.674Z" agent="Mozilla/5.0 (Windows NT 10.0; Win64; x64) AppleWebKit/537.36 (KHTML, like Gecko) Chrome/115.0.0.0 Safari/537.36 Edg/115.0.1901.188" etag="8PQsdf6c1fiVF3A-raT8" version="21.6.6" type="device">
  <diagram name="Page-1" id="BUCu4zzS5QmzdREZuagJ">
    <mxGraphModel dx="723" dy="426" grid="1" gridSize="10" guides="1" tooltips="1" connect="1" arrows="1" fold="1" page="1" pageScale="1" pageWidth="850" pageHeight="1100" math="0" shadow="0">
      <root>
        <mxCell id="0" />
        <mxCell id="1" parent="0" />
        <mxCell id="1OlWjO24hxwoXsdfYWza-1" value="" style="shape=image;verticalLabelPosition=bottom;labelBackgroundColor=default;verticalAlign=top;aspect=fixed;imageAspect=0;image=data:image/png,iVBORw0KGgoAAAANSUhEUgAAAh4AAAKpCAYAAADzDCWHAAAAAXNSR0IArs4c6QAAIABJREFUeF7svX+MXUd5//944yxr4wVb68p1gixDaW2+f8SAUlrJttImKAngypCVCCJxMET5Jo4N3riBTwvOb1MCCc46JHHSlGJwgkj02YBVK8SImEaxpTZFKY7UL3ZLQ2ThuBbe2mQde9k466+eG8969vjce2fOPb/mnNeVwNnd+fHM65nzzPvOzJmZ8sd//Me//q//+q/5wgcCEICAI4H3vve9J3/1q19NdUxOMghAAALyx3/8x6/813/917uniMipU6dOgQQCEICAM4EpU6Zo4HBOT0IIQAACGjdEpPH/CA/6AwQg4EUA4eGFi8QQgEBDcSA86AgQgEBCAgiPhODIBoEaE0B41Nj5NB0CnRJAeHRKkPwQqB8BhEf9fE6LIZAaAYRHaigpCAK1IVAL4fH444/L1VdfLddff73cd999Mm3aNG8H33XXXXLrrbfKnXfeKbfcckvb/MPDw3LVVVfJjh07ZNeuXbJ48eK2ebJKkKcthnXRbc6KpUu5u3fvliVLlshll10myqOvr88lW5BpEB5Bui1Yo/ft2ydXXnllw/4nnnhCFixYEGxb6mx4kMLjxIkTctNNN8kjjzwiixYtatsBQxAexkZXYePTafMSHsYvr7zyStMB17Yl2gZXsWIG9k6EpA8/37QID19ipM+LgP38hSiMER559ZRs6wlSeJjOt2fPngadxx57rDG70OyThvDI1g3SGKh1ViZk4WH88sUvfrGpP0zg+5//+Z+2grEZc4RH1r3RvXxmPNxZlSGleXaMLa5ivwy2qw0Ij7J4ojM7ghQeZpA2TY9+87VnRGw8Jt3+/fsnputuvPHGxhKMfnTQ15/NEon9jSC61GKLmXe84x1yzz33NMowD3LcLEP0oTeiSf9V0WF/1JZPfvKTZ9lp/94IL80X/fYSV1cz+/T30Zkj014VEa+99pr8y7/8S1uhoHmGhoZapmsnPGxuOqP10EMPibbT+O7FF19sLGNE/arLX9dee21jacvk+/M///PG0pp+zAxZNOC2q0+X5aL9zfQVe8nN8LLtsn0SFcv23+JsMLYnWRbsLCT45UZ4+PEqOnW0n0a/6Ji/X3rppXLo0KHGs2fHBvMs2H+340q0fdG4aZ6DP/zDP2w8V9OnT594NuNiZzQ22cIjGrtdlsCL5k/9bxEITnjYouJHP/qRbN68WaLfnluJBB2IjPDQh6qZ2NABT/d0mNmUZmWah07/tdf19Wd7j8fs2bMbIsI8cNF1/7gZj+hgFTfg6e+iMwC2sNJ1UK3btmXhwoWNnw236N91P0o0QLVb0jKD5/z581vuo/ERHio2vvrVr8pXvvKVhpgwvoib8YhbwtH8RpBE2xrX9mb1NQumxp7ojJoRR0ZcHD58eJLvzc9abtQ/pq6yLiNFWSA8whlK7GfvjjvukNtuu+2seGSe+6jQNz8/9dRTjS9Jzfp2NK5Fn1X7i4MKDROLlKI+R82eFRM3zd9N7L755pvPEi7heKS+lgYnPKLr51GBEDewRQeG6MA8b968szpvVAi4ipm4wUQfMCNM9N+4paFWwsOUaW+kihMl0eBgvs1EZ1+MLfbg1q697R4R45d2U7fN9niYQBYVbLYIMu1pJzxsG6JptXwz+6F+uPzyy8/aBBy3kThu1kPzX3HFFWf1nWgffeaZZ85aRjN1NLOhHe+y/B3hURZPtLfDjoO2oLefl2YzFCYG/fznP5+0Uf/48eMtN9FH4/GTTz4pBw4cEN0HtmLFCrnwwgsbotzM8Blh0yx2mS9wdkz03fjfnhQpsiYQnPCIdrJokI9+m9TBugzCI24WwcyW6N98hEezNpuH99577530Bk5UeOhDH33LJ8ooWkarjuiyqdTk95nxMAGxmc9t4dRsA22cYDC2uAqPZqKzWf5m4tie1rbLtJf32gm3rAOCb/kID19ixaS3Z4qbzdTpsl60r0ef16jwsIV8s75ryvzJT37SWIpdunSpvPzyyw0B0t/fL7psE51ZjqOk5ccJjyz3xxXjrerXGpTwaPVGhBnEW3XMuD0eOtWdx4xH9HXa6MPiIzyafStxFR5pz3iY2RcNIu3WWfMWHu02osYJlnaiwPjKVXgw41H9QFr2FsbNkBqb7WXUtGc8tA7zvGzcuFFeeOEFuf3220UFzNatW0WXZu39Y+1ERNzmUmY8yt77zrYvKOHR7DVFu+PZa37NlH0RSy1R4dFu6Ua/fTTbwd1MtETXZZstX0T3eBjhZQcAn4dZ7dHNtS7v1acpPJpt0LS/ebWaCdGgZ1jY5600609a7gc/+MFJSzW6V8Z1Fs6sU5vlJBOUzc9lOPPFN4Qx4+FLrJj0cW/2xc2CNItLZrau2X6mVnuSbNET3RtibxxvFfN0b95HP/rRBjz7HA+zP62Tt+SK8Ui9aw1KeDQbDKOCxA7ktnuLnPEwyxu2PfbUe/RNnOhbLfagHk2rb57oNKb9JkSzJQaXneNqo6vwcN1UGl1q0UE2+rE3mzUTAmZGxd78am8ijRu8m73l5FqfHTj126FODavQMsK2WflJ3mphqaXeATmL1scJDFNPsyXWuLjZ7A2vdueB2PWbGKzlm71W0Tdr4ma2zayMER72G31mtrvIQxqz8FuVywxKeFTZEaG2zYi+dmephNo+7G5NgBmPavWQdl84QjgTqVoeqWZrEB7V9GsurfLZVJqLQVSSOwGER+7IM60Q4ZEpXgo/TQDhQVeAAAQSE0B4JEZHRgjUlgDCo7aup+EQ6JwAwqNzhpQAgboRQHjUzeO0FwIpEkB4pAiToiBQEwIIj5o4mmZCIAsCCI8sqFImBKpNAOFRbf/SOghkSgDhkSleCodAJQlMCI+ZM2ceOXr06MxKtpJGQQACmRCYOXPmqaNHj07JpHAKhQAEKklg1qxZR48cOTJLA8cpva22kq2kURCAQFYEiBtZkaVcCFSXQCNuIDyq62BaBoEsCSA8sqRL2RCoJgGERzX9SqsgkAsBhEcumKkEApUigPColDtpDATyJYDwyJc3tUGgCgQQHlXwIm2AQEEEEB4FgadaCARMAOERsPMwHQJFE0B4FO0B6odAeAQQHuH5DIshUBoCCI/SuAJDIBAMAYRHMK7CUAiUjwDCo3w+wSIIlJ0AwqPsHsI+CJSYAMKjxM7BNAiUlADCo6SOwSwIhEAA4RGCl7ARAuUigPAolz+wBgJBEUB4BOUujIVAKQggPErhBoyAQJgEEB5h+g2rIVAkAYRHkfSpGwKBE0B4BO5AzIdAAQQQHgVAp0oIVIUAwqMqnqQdEMiPAMIjP9bUBIHKEUB4VM6lNAgCmRNAeGSOmAogUF0CCI/q+paWQSArAgiPrMhSLgRqQADhUQMn00QIpEwA4ZEyUIqDQJ0IIDzq5G3aCoF0CCA80uFIKRCoJQGERy3dTqMh0BEBhEdH+MgMgXoTQHjU2/+0HgJJCCA8klAjDwQg0CCA8KAjQAACvgQQHr7ESA8BCEwQQHjQGSAAAV8CCA9fYqSHAAQQHvQBCEAgMQGER2J0ZIQABJjxoA9AAAK+BBAevsRIDwEIMONBH4AABBITQHgkRkdGCECAGQ/6AAQg4EsA4eFLjPQQgAAzHvQBCEAgMQGER2J0ZIQABJjxoA9AAAK+BBAevsRIDwEIMONBH4AABBITQHgkRkdGCECAGQ/6AAQg4EsA4eFLjPQQgAAzHvQBCEAgMQGER2J0ZIQABJjxoA9AAAK+BBAevsRIDwEIMONBH4AABBITQHgkRkdGCECAGQ/6AAQg4EsA4eFLjPQQgAAzHvQBCEAgMQGER2J0ZIQABJjxoA9AAAK+BBAevsRqkH6xiHxaRC4TkXeJyNtE5Pci8hsR2SEi3xeR3TXgQBPbE0B4tGdECghAYDIBhAc9YoLAIhF5QET0394WXEZEZI+IrDn9LwjrSwDhUV/f03IIJCWA8EhKrmL5rhGR7yZo02dE5HsJ8pGlGgQQHtXwI62AQJ4EEB550i5pXSo6NovI9AT2HReRVYiPBOSqkQXhUQ0/0goI5EkA4ZEn7RLWpcsqv0jBrvez7JICxfCKQHiE5zMshkDRBBAeRXug4PqfF5ElKdiwS0SWplAORYRFAOERlr+wFgJlIIDwKIMXCrJB3175cZuNpK6m6YbTj/C2iyuuyqRDeFTGlTQEArkRQHjkhrp8FT0oIjemaNZDIrI6xfIoqvwEEB7l9xEWQqBsBBAeZfNIjvb8SkT+KMX6/ltE3ptieRRVfgIIj/L7CAshUDYCCI+yeSRHe0ZPHw6WVpV6yFhPWoVRThAEEB5BuAkjIVAqAgiPUrkjX2PU+Wl/pqRdIOWVmgDCo9TuwTgIlJIAwqOUbsnHKGY88uFc5VoQHlX2Lm2DQDYEEB7ZcA2iVPZ4BOGmUhuJ8Ci1ezAOAqUkgPAopVvyMYq3WvLhXOVaEB5V9i5tg0A2BBAe2XANolTO8QjCTaU2EuFRavdgHARKSQDhUUq35GcUJ5fmx7qKNSE8quhV2gSBbAkgPLLlW/rSuaul9C4qtYEIj1K7B+MgUEoCCI9SuiVfo7idNl/eVaoN4VElb9IWCORDAOGRD+fS16Li47sJrPyMiHwvQT6yVIMAwqMafqQVEMiTAMIjT9olr0uXXR4QEf23t4WteiHcHhFZc/rfkjcL8zIkgPDIEC5FQ6CiBBAeFXVsJ83St10+LSKXici7Th+rrseh/0ZEdojI97mFthO8lcqL8KiUO2kMBHIhgPDIBXPYlTC4hO2/LK2nb2RJl7IhUE0CCI9q+jXVVjG4pIqzUoXRNyrlThoDgVwIIDxywRx2JQwuYfsvS+vpG1nSpWwIVJMAwqOafk21VQwuqeKsVGH0jUq5k8ZAIBcCCI9cMIddCYNL2P7L0nr6RpZ0KRsC1SSA8KimX1NtFYNLqjgrVRh9o1LupDEQyIUAwiMXzGFXwuAStv+ytJ6+kSVdyoZANQkgPKrp11RbxeCSKs5KFUbfqJQ7aQwEciGA8MgFc9iVMLiE7b8sradvZEmXsiFQTQIIj2r6NdVWMbikirNShdE3KuVOGgOBXAggPHLBHHYlDC5h+y9L6+kbWdKlbAhUkwDCo5p+TbVVDC6p4qxUYfSNSrmTxkAgFwIIj1wwh10Jg0vY/svSevpGlnQpGwLVJIDwqKZfU20Vg0uqOCtVGH2jUu6kMRDIhQDCIxfMYVfC4BK2/7K0nr6RJV3KhkA1CSA8qunXVFvF4JIqzkoVRt+olDtpDARyIYDwyAVz2JUwuITtvyytp29kSZeyIVBNAgiPavo11VYxuKSKs1KF0Tcq5U4aA4FcCCA8csEcdiUMLmH7L0vr6RtZ0qVsCFSTAMKjmn5NtVUMLqnirFRh9I1KuZPGQCAXAgiPXDCHXQmDS9j+y9J6+kaWdCkbAtUkgPCopl9TbRWDS6o4K1UYfaNS7qQxEMiFAMIjF8xhV8LgErb/srSevpElXcqGQDUJIDyq6ddUW8XgkirOShVG36iUO2kMBHIhgPDIBXPYlTC4hO2/LK2nb2RJl7IhUE0CCI9q+jXVVjG4pIqzUoXRNyrlThoDgVwIIDxywRx2JQwuYfsvS+vpG1nSpWwIVJMAwqOafk21VQwuqeKsVGH0jUq5k8ZAIBcCCI9cMIddCYNL2P7L0nr6RpZ0KRsC1SSA8KimX1NtFYNLqjgrVRh9o1LupDEQyIUAwiMXzGFXwuAStv+ytJ6+kSVdyoZANQkgPKrp11RbxeCSKs5KFUbfqJQ7aQwEciGA8MgFc9iVMLiE7b8sradvZEmXsiFQTQIIj2r6NdVWMbikirNShdE3KuVOGgOBXAggPHLBHHYlDC5h+y9L6+kbWdKlbAhUkwDCo5p+TbVVDC6p4qxUYfSNSrmTxkAgFwIIj1wwh10Jg0vY/svSevpGlnQpGwLVJIDwqKZfU20Vg0uqOCtVGH2jUu6kMRDIhQDCIxfMYVfC4BK2/7K0nr6RJV3KhkA1CSA8qunXVFvF4JIqzkoVRt+olDtpDARyIYDwyAVz2JUwuITtvyytp29kSZeyIVBNAgiPavo11VYxuKSKs1KF0Tcq5U4aA4FcCCA8csEcdiUMLmH7L0vr6RtZ0qVsCFSTAMKjmn5NtVUMLqnirFRh9I1KuZPGQCAXAgiPXDCHXQmDS9j+y9J6+kaWdCkbAtUkgPCopl9TbRWDS6o4K1UYfaNS7qQxEMiFAMIjF8xhV8LgErb/srSevpElXcqGQDUJIDyq6ddUW8XgkirOShVG36iUO2kMBHIhgPDIBXPYlTC4hO2/LK2nb2RJl7IhUE0CCI9q+jXVVjG4pIqzUoXRNyrlThoDgVwIIDxywRx2JQwuYfsvS+vpG1nSpWwIVJMAwqOafk21VQwuqeKsVGH0jUq5k8ZAIBcCCI9cMIddCYNL2P7L0nr6RpZ0KRsC1SSA8KimX1NtFYNLqjgrVRh9o1LupDEQyIUAwiMXzGFXwuAStv+ytJ6+kSVdyoZANQkgPKrp11RbxeCSKs5KFUbfqJQ7aQwEciGA8MgFc1iV/LWI3CkiXxaRTSJiBpe1IvI1EblFRL4ZVpOwNiMCCI+MwFIsBCpMAOFRYecmbVqviAyLyDERGROROSJySES6RWSGiPSJyEjSwslXKQIIj0q5k8ZAIBcCCI9cMIdXic5s3CwiU0+LDBUjJ0XkXhH52/Cag8UZEUB4ZASWYiFQYQIIjwo7t5OmqdD4rYi8zSrk9yLyB8x2dIK1cnkRHpVzKQ2CQOYEEB6ZIw63Ap310P0e54rIG6f3dTDbEa4/s7Ac4ZEFVcqEQLUJIDyq7d+OWmfPejDb0RHKymZGeFTWtTQMApkRQHhkhrYaBZu9HuztqIY/024FwiNtopQHgeoTQHhU38cdtVBnPb4jIp9lb0dHHKuaGeFRVc/SLghkRwDhkRLbBV1dXStmzZrVPzIyMn9sbKwnpXIpJmUC3d3do729va8cOXJkaHx8fKuI7Eu5ijoVh/DozNvEjc745ZabuJEqaoRHpzhnzJjx8MmTJz+7atWqKcuXLz930aJFMnPmzE6LJX9GBI4ePSp79uyRbdu2vbF58+ZTU6dO/c6xY8duyKi6qheL8EjoYeJGQnAFZSNupAoe4dEBzvP6+vqeXbZs2bzBwcHpiI0OSBaUVYPJwMDA8e3bt+8fHh6+REReLciUUKtFePh7jrjhz6xUOYgbHbsD4ZEUYV9f3y8HBgYWrl+/PmkR5CsJgQ0bNsjg4ODe4eHh95XEpFDMQHh4eoq44QmsxMmJG4mdg/BIgk6nSfv7+1ds2bJlepL85CkfgZUrVx4fGhrayrKLl28QHh64iBsesAJJStxI5CiERwJsC3p6el46ePBgN8srCeiVNItOn86dO3dsdHT0AjacOjsJ4eGMSogb7qyCSUncSOQqhIcvtq6urg1r16790saNG/VETz4VIrBu3bo3Nm3a9I3x8XHWz9z8ivBw4yTEDUdQASYjbng7DeHhi0zXaIeGhhZedNFFvllJX3ICzz33nPT397PXw91PCA9HVsQNR1ABJiNueDsN4eGLrLu7+8ShQ4d6WGbxJVf+9DptOmfOnNGxsbFp5be2FBYiPBzdQNxwBBVgMuKGt9MQHt7IRE6dOqXc+FSRwJQpU7RZjf/j05YAwqMtookExA13VsGlJG54uQzh4YXrrcQEkATQQslCAPHyFMLDHRdxw51VcCmJG14uQ3h44UJ4JMAVVhYCiJe/EB7uuBAe7qyCS0nc8HIZwsMLF8IjAa6wshBAvPyF8HDHhfBwZxVcSuKGl8sQHl64EB4JcIWVhQDi5S+EhzsuhIc7q+BSEje8XIbw8MKF8EiAK6wsBBAvfyE83HEhPNxZBZeSuOHlMoSHFy6ERwJcYWUhgHj5C+Hhjgvh4c4quJTEDS+XITy8cCE8EuAKKwsBxMtfCA93XAgPd1bBpSRueLkM4eGFC+GRAFdYWQggXv5CeLjjQni4szor5e7du+Wuu+6Sxx9/XPr6+jooKZusxA0vrggPL1wFCQ996JYsWdKofdGiRfLEE0/IggULEphOlnYECCDtCE36O8LDHVdb4TE8PCxXXXWVzJ8/X+677z6ZNu2tA3T37dsnV155pfz5n//5pN+7V/1WSh20n3/++Y7K8K0zrfQIj7RIlqIchEcCN7QNIAnKbJul7A9e2wYEkgDh4eUohIc7rrZxQ4XHmjVr5H//93/l1ltvlcWLFzdK12/6//Ef/yF6TYMtSNyrDl94+LY17/TEDS/iCA8vXG8lbhtAEpTZNktUeOi3oC984Qt6qZlcf/31jfx33nmn3HLLLRNl6Tecq6++euLnyy67rPGtRz/6zeqKK66Qhx56qPGzzqLMmzdPbrrpJnnkkUcav3vsscca6fRjvnXt2bNnUl3mW9qOHTsav1dbTHCM2mjqj06VRu3ctWvXRNBtCyblBAQQL6AID3dcbeOGER6f+tSnRJ/3O+64Q/bv3y/f/va35b3vfa+8+OKLE89W9Lmzn5m4Z/WTn/xkY9bEPL/mWdTnf2RkRF577bXGc6/PvH7suGGXrSIomt7ECBuF/UzbMcHYbWKP2mP/XcuIm+E9fPjwpKWWVu2P2hidJW6VN2ksIm64Pwg6huq1FHovBQHEnVvbAOJelHvKOOGhgUSFh4oN8zDpf+s3JU2/evXqiWUZO78RHvaU7okTJxqi4/zzz58oT7993X777ROCZMWKFY2yNe3WrVtFf9ZgqB/9vbFBf6/ByARAY2Nca+2ydGpZH3wtu6i1XAKIe58kbvixanfHkxEe+sw9+eSTcvHFF8srr7zSWHrRf80yidaqz+rSpUsnPWcPPvigfPCDH2z8Le5Zfeqpp85aatFBemhoaCJOtHseo+njCERjleY5cOBAQzQdP3580nJStC3RuKUxRG16/fXXJ4TH9OnTm7Zf41DURnuJydRvxyjl/cADD4iKG/Pf+uVI6967d68sX768raOJG20R2QkQHl643kpcGuGhMx73339/Y7+HEQ4m4OjDpx8zAxInPIxI0XRmdsKUp7/TMt7znvfI5Zdf3ggW5mFtxcyuN67MdryT5GlXps/fCSA+tPjC4kGrbdywhYeWe9tttzVEv8582KJBZ0HsZ988q/rvjTfe2PRZjdvjEY0T0fZEn8d26W1bTOyxy5g9e3bDPjv22Hbde++9k+KWsceOXyoQmrVfy42LffplRoWPflGyN6nacVPrsr+sefhWiBs+tJjx8KJ1OnHbAJKk0HZ5mi21tBIeKhrMNKiL8LCnYo09ZrklOn0bnX7VNWnzMUs+riIiWnaRG2gJIO164qS/M1Pqjqtt3LCFh1n2NF8k7MFZhYf9zVxN0L+//PLLjQG92bPqKjxaPY+uwsOOPXa74oSHxiYjDFR42HmbCY9W7W8nPMxGfdt1Jp7ZSy3NlobjXE7ccH8QWGrxYjWRuG0ASVZs61xJhIeW6DPjEX2Ym1lk26JrxGYaVZdKfGc8TJDTaWKdJnUVK1kw1jIJIF5kER7uuNrGDXuAjr61FhUerb7x2ybZz+ozzzwTu9Rix4l2z6Or8IiWaewtw4yHETnmraFmLnRpq8lL3HB/EBAeXqzCEh5x66z6O3tzqT3dGd3joa01a5z6DUGneq+77roGhKjwMEEmWoaLiIimia7xJnNR8lwEEC92CA93XKkJD63S3o9li4WFCxc2fVZ1v0L0LIzo4NrueXQZjKPPcNweDxN7XPamGcTGdrPHw+xHi4qlVjMe0T0eJp7ZbrTfJrIFVCtXEzfcHwSEhxer4oRH3C5vtabVHg/9uz6AZglElz+iG7xs4aHpjXAwb7WYJY/o2y72Uog9Lau/nzNnTuPMETPlG/1mFofctvPSSy9tJLH3miRzU7JcBBAvbgiPM7j+WkT+XkRGmhBMTXjoN/Vmb2Y0e4btfWD6fNtvtUQH11bPo4vw0PLavdVi3oLTtPbbc9G8Jtb4vtVit8leyoljZ1hoHfZyc/RtG4SHV2xolZjNpQlQtg0gCcrMPIu9Bpx5ZQFXgPDwch7C4wyu4yJyjoh84/T/ogIkyLjh1RscEkdnOByyBJGEuOHlJoSHF663EgcRQFqdr5GgzbXJQgDxcjXC4wyum0Rkg24TOv0/fT1DRYgRIEHEDS/vJ0iM8EgArXpZEB4JfEoASQAtlCwIDy9PITwm4zosIuYikRMRAfJau3M8vMiTuFQEiBte7kB4eOEKaMYjQbvIcuatFlhAICmBcRHpsjKPichTIvIphEdSpOXPh/Dw8hHCwwsXwiMBrrCyEEC8/MWMBzMeXh2mqomJG16eRXh44cpAeNhrnjt37ow9PCeBjc5ZOrl8rpO8zgZaCc1ZBjfccIN8/etfbxxznPYV2QQQL88gPM7gGhCRr+a5x6Pst826vE7frLd1kterB6eUmLjhBRLh4YUrA+Ghr7/p0cjXXntt434Gc2qf/QqtbWP01bME9k/K0ol4cM2bVoDU+lSc6YVXroed+fIhgHgRQ3icwZX7Wy1pPVdeHvdI3Il4cM1bFgbEDY+OwSVxXrBM4lQ3l9rC4+c//3njQihzyVv0sJ9E1pYgU1rBwQgPvY9CT0y9+eabpd3pg77NJ4B4EUN4nMHV8TkeXuRPn5VhLo5L+znwtaWo9GnFlk7tJ254EWTGwwtXBjMezepvN5vQ6vpm+wAgLd8chGMul9LbYvV3enCOOeDL3AZrThnU2zD1kB89wGfLli3y8MMPN67Ntg8Pa3Zjrrl6Ww8ta3Ydtx7f3Ozq7bhrvc3R7wn85ZWFAOKFC+HhjiuVLyzNnu1Wh4rFmRg9aMyeSW31/EXjjjl8S+vQe6HMdff689133924mM0cBugTW6IzHnE2NYst0YPAzN1RalNWxwwQN9wfBE4u9WI1kTiVANKu6lbCQx/CZtc3R6+Vj97xoCfz2dfUtzpaXfdPRK+Ytk8utPOaY4xdruNVbHsGAAAgAElEQVRudfV2q3Ly+FZHAGnXMyf9HeHhjqvjuNHq2W513Xt0H1T0aoNWl9PZz6re7Grf3hp38aTO2KrY0Gc17mZbc21Du9hi541emGfbZN/aa+LDtm3bRI+O19Na445Tty+he/TRRxtiqdO9YsQN9wcB4eHFKn/hEXeLon4z0Yc77vpmE1CWLl06cSttu8ul4oSHttTMMESnMu2f7SumzTceFR7mRlxDrN10aNy12XHlJHOXXy4CiBcvhIc7ro6ER7tnu9V17+buEWNq3P4J/UKhA/Lll1/eeH7jnr+4O1DMcrB5/u1rGOKEh2tsMbOzOltiLpZLEltsbiow7Dtu3F3XPiVxoz0jKwVLLV643krcUQBxrc9nqcVMd0ZnC7SuvISHfmPwuY671dXbzcpxZddJOgKIFz2EhzuujuKGGUDNjGL02Vbh0eq6d9vM6PNl/maWW5o9f0acmC8WcTMeWQgPe+bCLOPa19hH97lEl5G0faZt0aWWtDbrEzfcHwRmPLxY5T/j4bq51HwT0c2WquiLmPGITlW2uo673dXbtlvaCbBkLmyeiwDiRRTh4Y4rFeHR7NlW4eF63Xt0qbZVE5rdRK158hQezWKC7hWzhUd0GSlupqjVzI+7OyenJG54kWPGwwtXSWY89IHXT9z1zfYMh6ZRIaIfXXe1py/1W0Q0eJh1V/19kqUWXW+97rrrzio3eh13q6u3dVq1WTmdrsO6+JoA4kLpjAg/fW6FV6aaJu5IeCizVs92q+veo0st0cFZy9ZnUp9TnTVxfY71C4/Zs6Fl6ExIFjMerWJCNLZEhYaZ4dCZIl1qUXGm/x23B6WTfknc8KKH8PDClbPwaLbH48ILL2x6fbM9zahvoOg18729vU2vqU9rj4dZ5tE3X/Rjv/1i22Rfx33rrbc20qqN+tH1XLORLK6cBL7yzkIA8ULGjIc7ro6FR9yz/dprr01s5owuI5hnLU6wR5cjzPPa7vmz36rRt0UOHDjQqN8InyyERyub4mKLEVAmDs2ZM0euueaahjCKvhVklmzc3RifkrjhRRDh4YUrR+GRwK7YLNF12bTKrWo5BBAvzyI83HF1LDzcq8onpc7AvPzyyxOzo/nUWs5aiBtefkF4eOEKQHgUeQZGApaly0IA8XIJwsMdV/DCI6szMNwRljclccPLNwgPL1wBCI8E7SGLRYAA4tUdEB7uuIIXHu5NrV9K4oaXzxEeXrgQHglwhZWFAOLlL4SHOy6Ehzur4FISN7xchvDwwoXwSIArrCwEEC9/ITzccSE83FkFl5K44eUyhIcXLoRHAlxhZSGAePkL4eGOC+Hhziq4lMQNL5chPLxwITwS4AorCwHEy18ID3dcCA93VsGlJG54uQzh4YUL4ZEAV1hZCCBe/kJ4uONCeLizCi4lccPLZQgPL1wIjwS4wspCAPHyF8LDHRfCw51VcCmJG14uQ3h44UJ4JMAVVhYCiJe/EB7uuBAe7qyCS0nc8HIZwsMLl4h0d3efOHToUM/MmTN9s5K+5ASOHj0qc+bMGR0bG5tWclPLYh7Cw9ETxA1HUAEmI254Ow3h4Yusr6/vl0NDQwsvuugi36ykLzmB5557Tvr7+/cODw+/r+SmlsU8hIejJ4gbjqACTEbc8HYawsMXWVdX14a1a9d+aePGjef65iV9uQmsW7fujU2bNn1jfHx8fbktLY11CA9HVxA3HEEFmIy44e00hIc3MpEFPT09Lx08eLCb5ZYE9EqaRadL586dOzY6OnqB3hJeUjPLZhbCw90jxA13VsGkJG4kchXCIwm2GTNmPNzf379iy5Yt05PkJ0/5CKxcufL40NDQ1mPHjt1QPutKaxHCw8M1xA0PWIEkJW4kchTCIxE2EdE124GBgYXr1zMrn5RhWfJt2LBBBgcH2dvh7xCEhycz4oYnsBInJ24kdg7CIzE6kfP6+vqeXbZs2bzBwcHpLLt0QLKgrDpNOjAwcHz79u37h4eHLxGRVwsyJdRqER7+niNu+DMrVQ7iRsfuQHh0ilCnT0+ePPnZVatWTVm+fPm5ixYtEkRIp1Szy69BY8+ePbJt27Y3Nm/efGrq1KnfYXklMW+ER0J0xI2E4ArKRtxIFTzCIyWcC7q6ulbMmjWrf2RkZP7Y2FhPSuVSTMoEuru7R3t7e185cuTI0Pj4+FY2knYEGOHRET4hbnTGL7fcxI1UUSM8UsVJYRCoFwGER7387dNa+oYPrXqlRXjUy9+0FgKpEmBwSRVnpQqjb1TKnak2BuGRKk4Kg0C9CDC41MvfPq2lb/jQqldahEe9/E1rIZAqAQaXVHFWqjD6RqXcmWpjEB6p4qQwCNSLAINLvfzt01r6hg+teqVFeNTL37QWAqkSYHBJFWelCqNvVMqdqTYG4ZEqTgqDQL0IMLjUy98+raVv+NCqV1qER738TWshkCoBBpdUcVaqMPpGpdyZamMQHqnipDAI1IsAg0u9/O3TWvqGD616pUV41MvftBYCqRJgcEkVZ6UKo29Uyp2pNgbhkSpOCoNAvQgwuNTL3z6tpW/40KpXWoRHvfxNayGQKgEGl1RxVqow+kal3JlqYxAeqeKkMAjUiwCDS7387dNa+oYPrXqlRXjUy9+0FgKpEmBwSRVnpQqjb1TKnak2BuGRKk4Kg0C9CDC41MvfPq2lb/jQqldahEe9/E1rIZAqAQaXVHFWqjD6RqXcmWpjEB6p4qQwCNSLAINLvfzt01r6hg+teqVFeNTL37QWAqkSYHBJFWelCqNvVMqdqTYG4ZEqTgqDQL0IMLjUy98+raVv+NCqV1qER738TWshkCoBBpdUcVaqMPpGpdyZamMQHqnipDAI1IsAg0u9/O3TWvqGD616pUV41MvftBYCqRJgcEkVZ6UKo29Uyp2pNgbhkSpOCoNAvQgwuNTL3z6tpW/40KpXWoRHvfxNayGQKgEGl1RxVqow+kal3JlqYxAeqeKsZmE/E5G/qGbTaBUEIJARgX8Wkb/MqGyKDZsAwiNs/+ViPd9ccsEcZCX0jSDdhtEQKJQAwqNQ/GFUzuAShp+KsJK+UQR16oRA2AQQHmH7LxfrGVxywRxkJfSNIN2G0RAolADCo1D8YVTO4BKGn4qwkr5RBHXqhEDYBBAeYfsvF+sZXHLBHGQl9I0g3YbRECiUAMKjUPxhVM7gEoafirCSvlEEdeqEQNgEEB5h+y8X6xlccsEcZCX0jSDdhtEQKJQAwqNQ/GFUzuAShp+KsJK+UQR16oRA2AQQHmH7LxfrGVxywRxkJfSNIN2G0RAolADCo1D8YVTO4BKGn4qwkr5RBHXqhEDYBBAeYfsvF+sZXHLBHGQl9I0g3YbRECiUAMKjUPxhVM7gEoafirCSvlEEdeqEQNgEEB5h+y8X6xlccsEcZCX0jSDdhtEQKJQAwqNQ/GFUzuAShp+KsJK+UQR16oRA2AQQHmH7LxfrGVxywRxkJfSNIN2G0RAolADCo1D8YVTO4BKGn4qwkr5RBHXqhEDYBBAeYfsvF+sZXHLBHGQl9I0g3YbRECiUAMKjUPxhVM7gEoafirCSvlEEdeqEQNgEEB5h+y8X6xlccsEcZCX0jSDdhtEQKJQAwqNQ/GFUzuAShp+KsJK+UQR16oRA2AQQHmH7LxfrGVxywRxkJfSNIN2G0RAolADCo1D8YVTO4BKGn4qwkr5RBHXqhEDYBBAeYfsvE+v/WkTuFJEvi8gmETGDy1oR+ZqI3CIi38ykZgoNjQDCIzSPYS8EiieA8CjeB6WzoFdEhkXkmIiMicgcETkkIt0iMkNE+kRkpHRWY1ARBBAeRVCnTgiETQDhEbb/MrNeZzZuFpGpp0WGipGTInKviPxtZrVScGgEEB6heQx7IVA8AYRH8T4opQUqNH4rIm+zrPu9iPwBsx2l9FdRRiE8iiJPvRAIlwDCI1zfZW65znrofo9zReSN0/s6mO3IHHtQFSA8gnIXxkKgFAQQHqVwQzmNsGc9mO0op4+KtgrhUbQHqB8C4RFAeITns1wtNns92NuRK/ZgKkN4BOMqDIVAaQggPErjinIaorMe3xGRz7K3o5wOKtgqhEfBDqB6CARIAOGRktMWdHV1rZg1a1b/yMjI/LGxsZ6UyqWYlAl0d3eP9vb2vnLkyJGh8fHxrSKyL+Uq6lQcwqMzbxM3OuOXW27iRqqoER6d4pwxY8bDJ0+e/OyqVaumLF++/NxFixbJzJkzOy2W/BkROHr0qOzZs0e2bdv2xubNm09NnTr1O8eOHbsho+qqXizCI6GHiRsJwRWUjbiRKniERwc4z+vr63t22bJl8wYHB6cjNjogWVBWDSYDAwPHt2/fvn94ePgSEXm1IFNCrRbh4e854oY/s1LlIG507A6ER1KEfX19vxwYGFi4fv36pEWQryQENmzYIIODg3uHh4ffVxKTQjED4eHpKeKGJ7ASJyduJHYOwiMJOp0m7e/vX7Fly5bpSfKTp3wEVq5ceXxoaGgryy5evkF4eOAibnjACiQpcSORoxAeCbAt6OnpeengwYPdLK8koFfSLDp9Onfu3LHR0dEL2HDq7CSEhzMqIW64swomJXEjkasQHr7Yurq6Nqxdu/ZLGzdu1BM9+VSIwLp1697YtGnTN8bHx1k/c/MrwsONkxA3HEEFmIy44e00hIcvMl2jHRoaWnjRRRf5ZiV9yQk899xz0t/fz14Pdz8hPBxZETccQQWYjLjh7TSEhy+y7u7uE4cOHephmcWXXPnT67TpnDlzRsfGxqaV39pSWIjwcHQDccMRVIDJiBveTkN4eCMTOXXqlHLjU0UCU6ZM0WY1/o9PWwIIj7aIJhIQN9xZBZeSuOHlMoSHF663EhNAEkALJQsBxMtTCA93XMQNd1bBpSRueLkM4eGFC+GRAFdYWQggXv5CeLjjQni4swouJXHDy2UIDy9cCI8EuMLKQgDx8hfCwx0XwsOdVXApiRteLkN4eOFCeCTAFVYWAoiXvxAe7rgQHu6sgktJ3PByGcLDCxfCIwGusLIQQLz8hfBwx4XwcGcVXErihpfLEB5euBAeCXCFlYUA4uUvhIc7LoSHO6vgUhI3vFyG8PDChfBIgCusLAQQL38hPNxxITzcWQWXkrjh5TKEhxeuDITHXXfd1Sj1lltuSWBK6yxZlu1rrLHl4osvlq1bt8p9990n06aV75wuAoiXZxEe7rgQHu6sgktJ3PByGcLDC1cL4aED66233jpR3KJFi+SJJ56QBQsWtKwiS3GQZdm+3B5//PFGlvnz558lPHbv3i1LlizxZudrg0t6AogLpYk0CA93XAgPd1bBpSRueLkM4eGFq4nw0EH1+eefn/QtXgfTV155Ra666qrChEeCtmWWxQiPCy+8UJ5++mm56aabGnXp7++5555JIm3fvn2T0mRmVEzBBBAv2ggPd1wID3dWwaUkbni5DOHhhStGeJw4caIxiC5durSlyLC/1V922WWNAbevr0+isxKmvEceeaRR22OPPTZRbvRvd95558QSjZZ39dVXN/KY8h966KHGz2YZRwf0K6+8Uvbs2SP2jMzw8HCjjiuuuEI0j/79+uuvnySk7BmdVnm1PpeZHk1n6lX7Fi9eHOsKrXdkZERee+01USaGh91e21ZT5o4dOxrl2X/T9n/hC1/Qi+Aav7f9YCongHg9EQgPd1wID3dWwaUkbni5DOHhhStGeOivdHAcGhpqOuCq6Fi9evXE33XQfPnllxuCwBYeRlicf/75jb/pILpmzRq5/fbbZd68eQ2BY/6m9W7btk0uvfRSeeqppxrLF0bM/OIXv2jsn3jyyScnhEd0kLdtmj17dkN46DKI7r3Qjy2mNK/Wcd111zX+pjYfOHCgkfb48eOT8vrs21AbtCxjd5wv4thqeru9muY973lPww4tUz8qZEybV6xY0fibEV4qPJrtqSGAeD0RCA93XAgPd1bBpSRueLkM4eGFq4nwMIOxvcfD/qYdndXQAVDFxAMPPNCYYdCPDoTmG/n9998/sTfEDKq6RKHf1u2/ab5WMy52vdFB3s53+eWXNwZme+bBHsyjjOyy9G/RvK5MtZx2G02bzQjZM0ytyrHzx/GN2koAcfVeIx3Cwx0XwsOdVXApiRteLkN4eOFqITzscsw3bf3WbWY1bFGiaeOWQ+ylELs8XV5Q4WHEii7RmI8REPqtPrpcERUe0UHeiAsX4RHdAGrs71R4uMx4GGFmCy2zFGU4RIWezdssSSE8EvT21lkQHu5IER7urIJLifDwchnCwwuXo/DQZPaG03vvvXdiKSBaX/QbeZy40DzNBs08ZjyiS0VpzXi47vGIEx5xQkvT2ctAuuzDjEeCHu6eBeHhwerUKcVVvY/9pWTXrl1N92vl0XKX5dtWdiR9ExDh4eVdhIcXrhjhoQP/bbfdJtdee+3E8khUDEQHbi3m0UcfndjMaQbW6B4PIzj27t3b2Mth7/HQtDqDoQNwdI+H7v1YuHBh7B4Ps98hbo9Hs6WW6MNs77HoZMbDCLRWb7XEBYLoHg+bhYq8ZjyZ8UjQ25nxSAvapBkP86zrm2/2Hicjxs2zYc9u+hji0td9ymuW1uXLQxr1uJaB8HAlVWg6hEcC/GdNmdpvWJjy7LdR9HfRpQoz/d/urZa4N0jMGxv2Wy32WydJ32ppJjyib9PomzFHjx5tBMxOhUccG7vNzb6BRJkb3tE3d+bMmdM4I6TZHpqo//nm4vVEMONxBtdfi8jfi8hIE4KxwkOfo7/6q7+aeHNN+/U//dM/TTxfZRceeQkc117ZqfBwrYe4kZRUIx/CIwE+1moTQAslC8LDy1MIjzO4jovIOSLyjdP/iwqQWOHxkY98RH784x/LV7/61UZJX/nKV0R/t3nz5kkzIfYXC/sLR9zr43/3d38nX/7ylxuvn5uPLoHo7IqeN/SOd7yjcXaOlvPJT35y4hV7TRt9RT+a3n4bLLonLbrvy3xBspdf4l6P13q3b9/eMPUHP/hB41/Ns3PnzolDGaNlaBpji725/MUXX5z0plz0C0o7W/RtQ7vsZkcQIDy84kQ0McIjAT6ERwJooWRBeHh5CuFxBpeeiLdBRKac/p+u+akIMQIkVnjo0qcKAv3o6+z63/qvvena3i+m6ewl1+jbZ2YJ9/Dhw2e9BWcGYXvwNcuyesKyGWQffPDBxj6NuPTR3hGd8YguM0fLbPZ6vL3cGq03ekBjdBa0mfCYPn36xHK07veKew0/egyCXXarIwiiJ1ITN/zjhj4oBBB3bggPd1bBpSSAeLmMuDEZ12ERMa+cnYgIkNfszaX222i6H0vP63nnO9/ZmPnQPV1GeOjgGT2g0CwnfPvb326ks8/2MebELYHEnbBsmx8VDe3Sa95oPc2OBDCzCM32bNknP0eXS6I/uwqP6DJV1LY4W1yPIIieSE3c8I8bCA8vZoLw8OMVVOrTASQomzG2VATGRaTLsmhMRJ4SkU81Ex46uxA9BC8qPOy3uOxzgLQeHQTNsoa91yl67k+ckIju39Ly7NOBo1dBtJvxsG0zA3+zAxNNWVG70hQe0eWgdvvHXI8gQHh09Myx1JIAH8IjAbRQsvDNxctTzHikMOMRPX/HHnhbzXhET/y1v9GrWe2ER/QtuqrNeOhyk26EN0tHzHh4PdtZJkZ4JKCL8PCAZr7N3HDDDfL1r3+9cVpr0p36HtUmTorw8EKH8DiDa0BEdIeo9x6PVsJDnxV7b4IRIrq8cvPNN0/aw2APrOYaBPtNtejMQlRoRK8YSLLUEhUzcXs8zLJL0hmPuD0vWpZe4WBvLo3uc4kea9BuqSXKI+5YBNMG4oZ/3GCpxYsZSy0+uPRh1d3punu+2eFoPuVlnZYA4kUY4XEGV6K3WuIOwot7JbTZWy3279UUe+Oo/UaH/VaLDtDmTiX7NX9dhtDXz6+55prG8k0S4aE2RN+0afVGiqb3XWqxl4fU5htvvLEhOKLCw1zCaU4x1rOQ9GOunWgnPDQtb7V4xQPXxMx4uJKy0jHj4QHNCA8NDnovjX5L87lIzqOqVJIiPLwwIjzO4PI6x8OLMolLT4C44eUihIcXrrcSl1Z4tLvePvrNotlGsKuvvrrRUHP/yf79+89aL47baW6+WdhnASTgW2gWAogXfoSHO67Sxg33JpCyGQHihlffQHh44QpEeDS73r6d8Gh13Xz0vAD751bnDCTgW2gWAogXfoSHOy6Ehzur4FISN7xchvDwwhWI8Gh29Hkr4dFs97y50VbXUM1/Hz9+vHHugO7ZmDdvXtNzBqK77hOwzj0LAcQLOcLDHRfCw51VcCmJG14uQ3h44aqB8Gh23bwtNnS3uBEhikQPOGp2zkCZ32CJ8z0BxOuJQHi440J4uLMKLiVxw8tlCA8vXDUQHs2um9emm+UVvc/g4osvbhyrHH0lT9MVdVFTAl+elYUA4kUR4eGOC+Hhziq4lMQNL5chPLxwBS484jaE6u/Mkkh0j4d93by+iaKbUW+77TbRh8w+j6PZOQP2hVIJOBeShQDihR3h4Y4L4eHOKriUxA0vlyE8vHAFLjzMrIV5+0SXVX72s5+dJSLMWy2a3hyfrP8dPRzIZtfsnIEEfAvNQgDxwo/wcMeF8HBnFVxK4oaXyxAeXrhKLjwStIUsEQIEEK8ugfBwx4XwcGcVXErihpfLEB5euBAeCXCFlYUA4uUvhIc7LoSHO6vgUhI3vFyG8PDChfBIgCusLAQQL38hPNxxITzcWQWXkrjh5TKEhxcuhEcCXGFlIYB4+Qvh4Y4L4eHOKriUxA0vlyE8vHAhPBLgCisLAcTLXwgPd1wID3dWwaUkbni5DOHhhQvhkQBXWFkIIF7+Qni440J4uLMKLiVxw8tlCA8vXAiPBLjCykIA8fIXwsMdF8LDnVVwKYkbXi5DeHjhQngkwBVWFgKIl78QHu64EB7urIJLSdzwchnCwwsXwiMBrrCyEEC8/IXwcMeF8HBnFVxK4oaXyxAeXrgQHglwhZWFAOLlL4SHOy6Ehzur4FISN7xchvDwwiUi3d3dJw4dOtQzc+ZM36ykLzmBo0ePypw5c0bHxsamldzUspiH8HD0BHHDEVSAyYgb3k5DePgi6+vr++XQ0NDCiy66yDcr6UtO4LnnnpP+/v69w8PD7yu5qWUxD+Hh6AnihiOoAJMRN7ydhvDwRdbV1bVh7dq1X9q4ceO5vnlJX24C69ate2PTpk3fGB8fX19uS0tjHcLD0RXEDUdQASYjbng7DeHhjUxkQU9Pz0sHDx7sZrklAb2SZtHp0rlz546Njo5eICL7Smpm2cxCeLh7hLjhziqYlMSNRK5CeCTBNmPGjIf7+/tXbNmyZXqS/OQpH4GVK1ceHxoa2nrs2LEbymddaS1CeHi4hrjhASuQpMSNRI5CeCTCJiK6ZjswMLBw/Xpm5ZMyLEu+DRs2yODgIHs7/B2C8PBkRtzwBFbi5MSNxM5BeCRGJ3JeX1/fs8uWLZs3ODg4nWWXDkgWlFWnSQcGBo5v3759//Dw8CUi8mpBpoRaLcLD33PEDX9mpcpB3OjYHQiPThHq9OnJkyc/u2rVqinLly8/d9GiRYII6ZRqdvk1aOzZs0e2bdv2xubNm09NnTr1OyyvJOaN8EiIjriREFxB2YgbqYJHeKSEc0FXV9eKWbNm9Y+MjMwfGxvrSalcikmZQHd392hvb+8rR44cGRofH9/KRtKOACM8OsInxI3O+OWWm7iRKmqER6o4KQwC9SKA8KiXv31aS9/woVWvtAiPevmb1kIgVQIMLqnirFRh9I1KuTPVxiA8UsVJYRCoFwEGl3r526e19A0fWvVKi/Col79pLQRSJcDgkirOShVG36iUO1NtDMIjVZwUBoF6EWBwqZe/fVpL3/ChVa+0CI96+ZvWQiBVAgwuqeKsVGH0jUq5M9XGIDxSxUlhEKgXAQaXevnbp7X0DR9a9UqL8KiXv2ktBFIlwOCSKs5KFUbfqJQ7U20MwiNVnBQGgXoRYHCpl799Wkvf8KFVr7QIj3r5m9ZCIFUCDC6p4qxUYfSNSrkz1cYgPFLFSWEQqBcBBpd6+duntfQNH1r1SovwqJe/aS0EUiXA4JIqzkoVRt+olDtTbQzCI1WcFAaBehFgcKmXv31aS9/woVWvtAiPevmb1kIgVQIMLqnirFRh9I1KuTPVxiA8UsVJYRCoFwEGl3r526e19A0fWvVKi/Col79pLQRSJcDgkirOShVG36iUO1NtDMIjVZwUBoF6EWBwqZe/fVpL3/ChVa+0CI96+ZvWQiBVAgwuqeKsVGH0jUq5M9XGIDxSxUlhEKgXAQaXevnbp7X0DR9a9UqL8KiXv2ktBFIlwOCSKs5KFUbfqJQ7U20MwiNVnBQGgXoRYHCpl799Wkvf8KFVr7QIj3r5m9ZCIFUCDC6p4qxUYfSNSrkz1cYgPFLFSWEQqBcBBpd6+duntfQNH1r1SovwqJe/aS0EUiXA4JIqzkoVRt+olDtTbQzCI1WcFAaBehFgcKmXv31aS9/woVWvtAiPevmb1kIgVQIMLqnirFRh9I1KuTPVxiA8UsVJYRCoFwEGl3r526e19A0fWvVKi/Col79pLQRSJcDgkirOShVG36iUO1NtDMIjVZzVLOxnIvIX1WwarYIABDIi8M8i8pcZlU2xYRNAeITtv1ys55tLLpiDrIS+EaTbMBoChRJAeBSKP4zKGVzC8FMRVtI3iqBOnRAImwDCI2z/5WI9g0sumIOshL4RpNswGgKFEkB4FIo/jMoZXMLwUxFW0jeKoE6dEAibAMIjbP/lYj2DSy6Yg6yEvhGk2zAaAoUSQHgUij+MyhlcwvBTEVbSN4qgTp0QCJsAwiNs/+ViPYNLLpiDrIS+EaTbMBoChRJAeBSKP4zKGVzC8FMRVtI3iqBOnRAImwDCI2z/5WI9g0sumIOshL4RpNswGgKFEkB4FIo/jDB6RyQAACAASURBVMoZXMLwUxFW0jeKoE6dEAibAMIjbP/lYj2DSy6Yg6yEvhGk2zAaAoUSQHgUij+MyhlcwvBTEVbSN4qgTp0QCJsAwiNs/+ViPYNLLpiDrIS+EaTbMBoChRJAeBSKP4zKGVzC8FMRVtI3iqBOnRAImwDCI2z/5WI9g0sumIOshL4RpNswGgKFEkB4FIo/jMoZXMLwUxFW0jeKoE6dEAibAMIjbP/lYj2DSy6Yg6yEvhGk2zAaAoUSQHgUij+MyhlcwvBTEVbSN4qgTp0QCJsAwiNs/+ViPYNLLpiDrIS+EaTbMBoChRJAeBSKP4zKGVzC8FMRVtI3iqBOnRAImwDCI2z/5WI9g0sumIOshL4RpNswGgKFEkB4FIo/jMoZXMLwUxFW0jeKoE6dEAibAMIjbP9lYv1fi8idIvJlEdkkImZwWSsiXxORW0Tkm5nUTKGhEUB4hOYx7IVA8QQQHsX7oHQW9IrIsIgcE5ExEZkjIodEpFtEZohIn4iMlM5qDCqCAMKjCOrUCYGwCSA8wvZfZtbrzMbNIjL1tMhQMXJSRO4Vkb/NrFYKDo0AwiM0j2EvBIongPAo3geltECFxm9F5G2Wdb8XkT9gtqOU/irKKIRHUeSpFwLhEkB4hOu7zC3XWQ/d73GuiLxxel8Hsx2ZYw+qAoRHUO7CWAiUggDCoxRuKKcR9qwHsx3l9FHRViE8ivYA9UMgPAIIj/B8lqvFZq8HeztyxR5MZQiPYFyFoRAoDQGER2lcUU5DdNbjOyLyWfZ2lNNBBVuF8OjMAQu6urpWzJo1q39kZGT+2NhYT2fFkTsrAt3d3aO9vb2vHDlyZGh8fHyriOzLqq4alIvwSMnJBJCUQGZdDAEkVcIIj4Q4Z8yY8fDJkyc/u2rVqinLly8/d9GiRTJz5syEpZEtawJHjx6VPXv2yLZt297YvHnzqalTp37n2LFjN2Rdb0XLR3h06lgCSKcE881PAEmVN8LDH+d5fX19zy5btmze4ODgdMSGP8Cic2gMGRgYOL59+/b9w8PDl4jIq0XbFFj9CI8OHEYA6QBeGbISQDr2AsLDE2FfX98vBwYGFq5fv94zJ8nLRmDDhg0yODi4d3h4+H1ls63k9iA8kjqIAJKUXPnyEUAS+wTh4YFOZ0f7+/tXbNmyZbpHNpKWmMDKlSuPDw0NbWXZxctJCA8vXKcTE0CSUCt3HgJIIv8gPNyxLejp6Xnp4MGD3SyvuEMre0qdNZ07d+7Y6OjoBWw4dfYWwsMZ1ZmEBJAE0MqehQCSyEMID0dsXV1dG9auXfuljRs36oF8fCpEYN26dW9s2rTpG+Pj46yfufkV4eHG6UwqAogvsXDSE0C8fYXwcESmS7NDQ0MLL7roIsccJAuFwHPPPSf9/f3s9XB3GMLDndVbKQkgvsTCSU8A8fYVwsMRWXd394lDhw71sMziCCygZDpbOmfOnNGxsbFpAZldpKkID1/6BBBfYuGkJ4B4+wrh4Y7s1KlTiotPFQlMmTJFm9X4Pz5tCSA82iI6OwEBJAG0ULIQQLw8hfBwx0XcEJHh4WG56qqr5JZbbpHFixe702uT8sSJE3LTTTfJ0qVLG+Xn/SFueBFHeHjheisxASQBtFCyEEC8PIXwcMfVUdzYt2+fXHnllY3TM83nzjvvbAzgIX0QHiF5KzNbER4J0HYUQBLUR5YcCSA8vGAjPNxxJY4bcYO1fsO/99575cYbb9R9Z+5WFJwS4VGwA8pRPcIjgR8SB5AEdZElZwIIDy/gCA93XInjxu7du+Wuu+6Sxx9/vKnIMEsNjzzySMOixx57rOWSg5Z19dVXT1h/2WWXNcrXT3QpROt+z3ve0/i9EQ47duxopL3++uvlvvvuk2nTponOynzhC1/QNzwavzdlHj58+KzZml27djWWWqIzOfYsjtrz/PPPyzve8Q655557GvWZfFHscUstdhttOzVvtP3NynV1L3HDlVQjHcLDC9dbiRMHkAR1kSVnAgQQL+AID3dcieOGGZx1QI9bWjGD7vnnn9/4u4qDNWvWyO233y4LFiw4y0IVMqtXr5Ynnnii8Xdb2LQTHppWPyoajAhZsWJFQ5TE2RlNE53x2LZtmyxcuLBhh8n/4IMPNso34sCIglYCLCo8omlVPB04cKAhkvbv399g88ADDzSEnNa7d+9eWb58ubs3IymJG17oEB5euBAeCXCFlYUA4uUvhIc7rsTCQ6uI2+NhzxroTMP9998/ITTsWYqoifo3/RgR4yM8WpVlZjxsO6ICoNVSS1Q8mBkPe0bFFgy2LdG80TbatukMjC283F3YPCVxw4siwsMLF8IjAa6wshBAvPyF8HDH1ZHwiFajg7IuP+ishX6iG0/1d82WW6KixFd4aP5bb711wiSzPNJMeGzdunViOSYqPKJLRLbdnQoPszykZUZngeylFrMk1MleGeKG+4PAUosXq4nEqQaQZCaQKysCBBAvsggPd1ypxg17AJ89e/akpYN2JnUy42EvWei+Drss3xmPD37wg41XYM0SUV4zHtHlpyiPdvzi/k7c8KLGjIcXrgxmPIp+/7xV+7PagZ6A+USWrHkRQLy8g/Bwx5VYeOiMxM6dOyft77BnKaZPnz5pAFeTWu1biNv/oL/TWQBTljkPwyzxfPGLX2zs47AH6ejekjjhEY0hWs+SJUsam0SN8DB1RfeDdDLjEd3HYgumF198seE1c44IwsO9E6eUEuGRAGSiANJsY1TWA2mC9k1k8REe0SDRSb2t8mbNC+Hh5TmEhzuuRHHDLBPooG/eJNHfRZcHoksWixYtmtg8GmeivVyiSyVm46V5O8Us3ejbIPpWiZZnbyDV80T0d3PmzGkICd0vEic8tG4jNvS/tbxXXnll4gAx+2+mvGuuuaZRVyfCQ+tq9lZLdL9M9I0Xd5eeSUnc8KKG8PDC1cGMB8IjAemYLAiPdDimVArCwx1kYuHhXkWylDpAv/zyy8EdRpastdnkQnh4cUV4eOHKSXjY3wLsbzbt3mv3eSe+2amH7XbP25vY7E1l9u9tm6PfrMxO+lbnAUR9Ek2rf7c3zrV6X9/XvwQQL2IID3dcpREePs+ee/PqnZK44eV/hIcXrhyER3Rt0v420u69dp934uPa3ek793rYj3n1zUx1mt/pz/ZGsujO+kcffVSuuOKKsw5Iiq4jx21A013z5nClVq8RuviaAOJCaSINwsMdV2mEh7vJpHQlQNxwJdVIh/DwwpWD8Ih7/9y8u/7MM880TvJL8l67yx6MNN+5j1sSMeV/+9vfbmxSM7vZW/kgum5sl6tCJXoxlNZhv77n618CiBcxhIc7LoSHO6vgUhI3vFyG8PDClZPwsN+R1yrN0kU74eHzTnxcu6ODdifv3Btb9FRDs3tcRYQRUVq/vWGu2ZkDdh59zz5OeJhjok2bOtksRgDxeiIQHu64nIWHy5cE92pJmQcB4oYXZYSHF66chId98I1tX6td3tFX6tq9E99MeNh3QtjCw/ed+1YzHtE7J5rthlcbXWY8bHGTwJ+TshBAvAgiPNxxpS48fN46czeTlEkIEDe8qCE8vHDlIDyiezy0SrP/odWMR/T9+3bvxMe1u5N37uPe2lGBYfZf2MLo5ptvbvxeBYN9uZR91LKxLypgoucK2HWYGRG7bF//EkC8iCE8zuD6f0Xk71vQQ3h4da2wEhM3vPyF8PDC1aHw0Pfd7Y++t/7d735XNm/eLOYQHf27/VaL/mzeHmn3XrvPO/HN2p30nXt7mcflrZboscutboe037T51Kc+1TB92bJlE7dvRm+abHczZyufE0C8ngiEx1u49F76/xGR34nIHSLyrRiKLYVH9Hmwlwvtv9nnc0TzmH7f6a2sLieQRtvXzEbfW3NbcYi+jWNihvm97vl66KGHRM8YiS63NntTMO5G3W9961vy+c9/fuLcFJelW+KGf9yYYnaZemWtb2Lnby71RRRuywkgXr5DeJzBdaeIfPH0j8dF5G4R+aaIjJ/+XdO4EZ21s79gHD9+XJ566im57rrrGsXYJ3Dq36JX2Kd1K6v9dli7s3Oie8PMDbbR5dl2t+a246BttW/Cje4Xmz9/fmPjvX7sTeet3hSMu1G31Q28zZ4O4oZ/3EB4eDEThIcfr6BSE0C83IXwOINrhogcEpHpp391QkROisg3RGSjiLx+6pTimvyJG9RbbS51udBNazDn5SS9ldXe1K23uTa7FVbrigoG08K4mZNmr7u346DHnNv7z+zN6wsXLjxLgNn1tHpTUNsWvdk3bjbHZhr3hBA3/OMGwsOLGcLDD1dYqQkgXv7SkXTq6f+dIyL6P/057t8y/C1NG+LK0iWXc0Wky6L4exH5oYh8qpXwsDdIR4VHdOnVLGVqHdEZj+jAnvRWVntg1yPO251sai+RmKWJ/fv3O9+aG/cWnM1BhUd0qVrbr8stLsKj2ZuCzYRHsxt4mfHwig/NErPHIwFGZjwSQAsly2nhEYq5ZbBTv9W/efrbvf5r/7f5Wye/C6mMn4vI3NNO0eWWntPLLV8Tkf9NMuOhA+7q1asn7l3pZMbD91ZWrUv3l+knbuN3XOezZy4uvPBC51tzXWY8mp3PE/d2T3TGo9mbgs1mZey7a1wukeMLi1coQnh44XorMcIjAbRQshBAvDzFUssZXNeIyMOn93RME5EHRUQFx8HTSVru8Yie8Kt5dL9CdIkh7k2x6MZ0W6h0ciurGdDN3gl9Ay3uY5+YHHfOjn1QYKtbc+0ZDq1H92kYDmY/i9njob83ezHazXi0elMwbsaj1Q28zHh4xQdmPFLBhfDwwthuU1qrwjrJ62VkJDHCw4sewuMMrt+KyDtFZMtpwfHrCMmmwsN+80PfWrn00kvltddem7RR0hySp3ciHT16dOKKAHsZpt1bLb63ssYtf8T1jmZv4Wlan1tz4zj09vZO7FeJvtXis+TUzMa4GQ+bU/QGXoSHV3xAeKSCC+HhhbET8eCat9XhY17Gnk6M8PCihvA4g+sWEfm/IvLLJgSDmynVZ0uvN7jjjjsa5+3k/en03qU87SVueNFmqcULF8IjAa5ssyA8suXbpnSEhzv+4IRH3gN/q9u13TEXkxLh4cUd4eGFy1F46AM7MjLSmC7VKVL70J92G6G0imaH3UQ3OTU71VMP0LHrbNbGZgcNtQoA0cO6otOd5hAfrTN6OJrm3b59e8OcH/zgB41/dVf6zp07xew6N4cCRdsWd5X33/3d38mXv/zlBmPzsXe579ixo/FrlwOATH4CiNcTgfBwxxWc8HBvGimJG159AOHhhctDeAwNDU3sRI8eCNTqFbh2h93Y79PHXbqm7+/rpWxxG6rstkbfvTffbsyNr+b1PhUA5ghylx329ka0uPti7rnnnklcrr766ob4UJvjNpeZjXPRb1/mGPm4zWFJDgBCeCR4Ek5fb50oZ/0yITwq7HOEh5dzER5euDyEhyY1h/jYJ/vFnTboetiNue/EiAIdqM379dETC1vtkWh2gZsKDLX52muvnTgh0OYTnXFp92pfu4vqojbbP9t3zxgxZO+ON3a5LLW4vA6H8EjwJCA8fKAhPHxoBZYW4eHlMISHF66chEezw270EjQjNvSiNX3dzIiQ6LHFamq7UwKbXScfPfjHzEhEy8tLeOgMUXSpxezgbyY8fA8AQngkeBIQHj7QaiM87Gdy3rx5k44vbwfM50tCu7Ly/DvCw4s2wsMLV07Co9lhN1q9WV5Zs2aN6PvzZsd5khkPl+vk7XL1AqboTI45xlh/H11CSmvGQ8u1P3Zg099Hjzy2zy7Q3fg+wYwA4vVEsMfDHRfCI/Icx6HzeVbd0WefkrjhxRjh4YUrBeGhRdgXGEWveW912I3OeJiZjP/4j/+Qv/qrv5q4odXMCJgDdnz3eJi9HB/72Mfk6aefnriUyhYee/funXRfggYJ/bvOwmQpPHSpxb7q3hYes2fPjj022ggkI37ilmnifE8A8XoiEB7uuGopPKKnpbbDhfBoR6gSf0d4JHBj2wAStxfCPu7XfmtE37h4xzve0XgLxXyzb3Ugj9rbTFRED7554oknpNWDH3edvNlPYZZhom/H2EsYepyyOVo4bu9KmjMe0aUTs/yjPOx26O9VjOhBS+btnjlz5jTueTB7blr5HOHh9UQgPNxxtY0b7kWlnzK6ZBk9PKzVm3pRa1ottUSvode8GkfMsxmNnfaXG/PFK/3Wd14iccOLIcLDC5fjjEeCMoPMYm9uDbIBMUYTQLw8ifBwxxW88Gj2pl70cLF2wkO/FPT39zfERvR4AVt4hBRfiBvuD4JeOyIiU7id1otZfe9qiTtLQ++TKOJUQz+XuacmgLizMgHEK0d9EwcvPNR1cW/q+QoPe09W3MyK1qP73Mz9NSHEF+KG14ON8PDCxYxHAlxhZSGAePmLGQ93XAiPq65qbI5vJzyihwm6Iy4uJXHDiz3CwwsXwiMBrrCyEEC8/IXwcMeF8HAUHrpvbP369fLFL35R9MBE3w2q7i5JLyVxw4slwsMLF8IjAa6wshBAvPyF8HDHVWrhEd1rYTa422f45LnUoks6LocDuuPPNiVxw4svwsMLF8IjAa6wshBAvPyF8HDHVWrhoc2w36bT2Qa9a8qc9dPuTT0bQ7vNpe2WWqICZ/Xq1RPXLLjjzjclccOLN8LDCxfCIwGusLIQQLz8hfBwx1V64eHeFFJGCRA3vPoEwsMLF8IjAa6wshBAvPyF8HDHhfBwZxVcSuKGl8sQHl64EB4JcIWVhQDi5S+EhzsuhIc7q+BSEje8XIbw8MKF8EiAK6wsBBAvfyE8HHF1d3efOHToUM/MmTMdc5AsFAJHjx6VOXPmjI6NjU0LxeaC7UR4+DqAAOJLLJz0BBBvXyE8HJH19fX9cmhoaOFFF13kmINkoRB47rnn9CTWvcPDw+8LxeaC7UR4+DqAAOJLLJz0BBBvXyE8HJF1dXVtWLt27Zc2btx4rmMWkgVCYN26dW9s2rTpG+Pj4+sDMbloMxEevh4ggPgSCyc9AcTbVwgPd2QLenp6Xjp48GA3yy3u0MqeUmdJ586dOzY6OnqBiOwru70lsQ/hkcARBJAE0MqehQCSyEMIDw9sM2bMeLi/v3/Fli1bpntkI2mJCaxcufL40NDQ1mPHjt1QYjPLZhrCI4lHCCBJqJU7DwEkkX8QHp7YdKl2YGBgoR4JzidsAhs2bJDBwUH2dvi7EeHhz+ytHASQpOTKl48AktgnCA9/dOf19fU9u2zZsnmDg4PTWXbxB1h0Dp0dHRgYOL59+/b9w8PDl4jIq0XbFFj9CI8OHEYA6QBeGbISQDr2AsIjIUKdNT158uRnV61aNWX58uXnLlq0SBAhCWHmkE1jxZ49e2Tbtm1vbN68+dTUqVO/w/JKYvAIj8ToTmckgHRKMN/8BJBUeSM8OsO5oKura8WsWbP6R0ZG5o+NjfV0Vhy5syLQ3d092tvb+8qRI0eGxsfHt7KRtCPSCI+O8J3JTABJCWTWxRBAUiWM8EgVZ6UKo29Uyp2pNgbhkSpOCoNAvQgwuNTL3z6tpW/40KpXWoRHvfxNayGQKgEGl1RxVqow+kal3JlqYxAeqeKkMAjUiwCDS7387dNa+oYPrXqlRXjUy9+0FgKpEmBwSRVnpQqjb1TKnak2BuGRKk4Kg0C9CDC41MvfPq2lb/jQqldahEe9/E1rIZAqAQaXVHFWqjD6RqXcmWpjEB6p4qQwCNSLAINLvfzt01r6hg+teqVFeNTL37QWAqkSYHBJFWelCqNvVMqdqTYG4ZEqTgqDQL0IMLjUy98+raVv+NCqV1qER738TWshkCoBBpdUcVaqMPpGpdyZamMQHqnipDAI1IsAg0u9/O3TWvqGD616pUV41MvftBYCqRJgcEkVZ6UKo29Uyp2pNgbhkSpOCoNAvQgwuNTL3z6tpW/40KpXWoRHvfxNayGQKgEGl1RxVqow+kal3JlqYxAeqeKkMAjUiwCDS7387dNa+oYPrXqlRXjUy9+0FgKpEmBwSRVnpQqjb1TKnak2BuGRKk4Kg0C9CDC41MvfPq2lb/jQqldahEe9/E1rIZAqAQaXVHFWqjD6RqXcmWpjEB6p4qQwCNSLAINLvfzt01r6hg+teqVFeNTL37QWAqkSYHBJFWelCqNvVMqdqTYG4ZEqTgqDQL0IMLjUy98+raVv+NCqV1qER738TWshkCoBBpdUcVaqMPpGpdyZamMQHqnipDAI1IsAg0u9/O3TWvqGD616pUV41MvftBYCqRJgcEkVZ6UKo29Uyp2pNgbhkSpOCoNAvQgwuNTL3z6tpW/40KpXWoRHvfxNayGQKgEGl1RxVqow+kal3JlqYxAeqeKkMAjUiwCDS7387dNa+oYPrXqlRXjUy9+0FgKpEmBwSRVnpQqjb1TKnak2BuGRKk4Kg0C9CDC41MvfPq2lb/jQqldahEe9/E1rIZAqAQaXVHFWqjD6RqXcmWpjEB6p4qQwCNSLAINLvfzt01r6hg+teqVFeNTL37QWAqkSYHBJFWelCqNvVMqdqTYG4ZEqTgqDQL0IMLjUy98+raVv+NCqV1qER738TWshkCoBBpdUcVaqMPpGpdyZamMQHqnipDAI1IsAg0u9/O3TWvqGD616pUV41MvftBYCqRJgcEkVZ6UKo29Uyp2pNgbhkSpOCoNAvQgwuNTL3z6tpW/40KpXWoRHvfxNayGQKgEGl1RxVqow+kal3JlqYxAeqeKsZmE/E5G/qGbTaBUEIJARgX8Wkb/MqGyKDZsAwiNs/+ViPd9ccsEcZCX0jSDdhtEQKJQAwqNQ/GFUzuAShp+KsJK+UQR16oRA2AQQHmH7LxfrGVxywRxkJfSNIN2G0RAolADCo1D8YVTO4BKGn4qwkr5RBHXqhEDYBBAeYfsvF+sZXHLBHGQl9I0g3YbRECiUAMKjUPxhVM7gEoafirCSvlEEdeqEQNgEEB5h+y8X6xlccsEcZCX0jSDdhtEQKJQAwqNQ/GFUzuAShp+KsJK+UQR16oRA2AQQHmH7LxfrGVxywRxkJfSNIN2G0RAolADCo1D8YVTO4BKGn4qwkr5RBHXqhEDYBBAeYfsvF+sZXHLBHGQl9I0g3YbRECiUAMKjUPxhVM7gEoafirCSvlEEdeqEQNgEEB5h+y8X6xlccsEcZCX0jSDdhtEQKJQAwqNQ/GFUzuAShp+KsJK+UQR16oRA2AQQHmH7LxfrGVxywRxkJfSNIN2G0RAolADCo1D8YVTO4BKGn4qwkr5RBHXqhEDYBBAeYfsvF+sZXHLBHGQl9I0g3YbRECiUAMKjUPxhVM7gEoafirCSvlEEdeqEQNgEEB5h+y8X6xlccsEcZCX0jSDdhtEQKJQAwqNQ/GFUzuAShp+KsJK+UQR16oRA2AQQHmH7LxfrGVxywRxkJfSNIN2G0RAolADCo1D8YVTO4BKGn4qwkr5RBHXqhEDYBBAeYfsvE+v/WkTuFJEvi8gmETGDy1oR+ZqI3CIi38ykZgoNjQDCIzSPYS8EiieA8CjeB6WzoFdEhkXkmIiMicgcETkkIt0iMkNE+kRkpHRWY1ARBBAeRVCnTgiETQDhEbb/MrNeZzZuFpGpp0WGipGTInKviPxtZrVScGgEEB6heQx7IVA8AYRH8T4opQUqNH4rIm+zrPu9iPwBsx2l9FdRRiE8iiJPvRAIlwDCI1zfZW65znrofo9zReSN0/s6mO3IHHtQFSA8gnIXxkKgFAQQHqVwQzmNsGc9mO0op4+KtgrhUbQHqB8C4RFAeITns1wtNns92NuRK/ZgKkN4BOMqDIVAaQggPErjinIaorMe3xGRz7K3o5wOKtgqhEfBDqB6CARIAOGRktMWdHV1rZg1a1b/yMjI/LGxsZ6UyqWYlAl0d3eP9vb2vnLkyJGh8fHxrSKyL+Uq6lQcwqNO3qatEEiHAMKjU44zZsx4+OTJk59dtWrVlOXLl5+7aNEimTlzZqfFkj8jAkePHpU9e/bItm3b3ti8efOpqVOnfufYsWM3ZFRd1YtFeFTdw7QPAukTQHh0wPS8vr6+Z5ctWzZvcHBwOmKjA5IFZVURMjAwcHz79u37h4eHLxGRVwsyJdRqER6heg67IVAcAYRHUvZ9fX2/HBgYWLh+/fqkRZCvJAQ2bNggg4ODe4eHh99XEpNCMQPhEYqnsBMC5SGA8EjiC11e6e/vX7Fly5bpSfKTp3wEVq5ceXxoaGgryy5evkF4eOEiMQQgYO7/mmJdBAaV9gQW9PT0vHTw4MFullfawwolhS67zJ07d2x0dPQCNpw6ew3h4YyKhBCAwGkCzHj4doWurq4Na9eu/dLGjRv1RE8+FSKwbt26NzZt2vSN8fFx1s/c/IrwcONEKghA4AwBhIdvb9C9HUNDQwsvuugi36ykLzmB5557Tvr7+9nr4e4nhIc7K1JCAAJvEUB4+PaE7u7uE4cOHephmcWXXPnT63LLnDlzRsfGxqaV39pSWIjwKIUbMAICQRFAeCRw16lTp5QbnyoSmDJFtzxJ4//4tCWA8GiLiAQQgECEAMIjQZdAeCSA1i7L7t275a677pLHH39c+vr6JiU/ceKE3HTTTbJ06VK56qqrpFXaaD1a3vPPPy/33XefTJvWfiID4dHOU5P+jvDwwkViCECApZZkfaCp8NBB7uqrr55U6q5du2Tx4sXJaiowl++A3ampCI9OCRaSH+FRCHYqhUDQBJjxSOC+WOERN3Du27dPnn766ca39dA+ZRYePix928GMhw/dtzaJeeUgMQQgUHcCCI8EPSBWeOgygX5uueWWpkWqOFmyZEnj75dddlnssoL+bXh4uLGkoDMlt956ayP99ddfLzfccIOsXLmycdeI/myWD6KDqwqe22+/XR544IGJZQt7NsbOq2mvvPLKRpn6ufPOO+WTn/zkpN8ZGYymFQAAGUNJREFUWx966CEZGRmR1157TR555BF57LHH5MILLzwrfysGpm07duxo1GdmhJLOeGgZyuqKK64Qta8dG+Vwzz33yBNPPCELFiw4y1cID68nAuHhhYvEEIAASy3J+kCs8DADe7OlFR1YV69ePTHgafqXX345VqjYwkMHcfPz/PnzG2Lj+PHjjcFW/6bipJ3w0L9v3bp1QuioSHrPe97TGKx1NmbFihWNcnQvhabTn5966qmz9kZovqGhoUmD9rZt22ThwoWNQdyImAcffDB2ecm0Q8tX+22BtHfv3kR7PIzwMGz0Z3s/iM3mxRdfbLSv1X4PhIfXQ4Hw8MJFYghAAOGRrA847/GwZzWiMyJxsxLGHDNAG2ER3VwZ/bmV8Jg+ffqkgVjrUBGkA7CWf+211zaEhgoB+xO3RNFuVidqVxRvdFbDpNf69ZNkc6kRHoaVKUeFlbbJtKO/v1+++c1vNp1lMrYiPLweCoSHFy4SQwACCI9kfcDprRYzqGoV+g373nvvnVg2MdU2W27JQnjo0oj9Mcst+/fvn7RUYmZsXIWHaaddvi7BRIWMETxmqcm2RevMUniYDb/N7LJtQXh4PRQIDy9cJIYABBAeyfqAk/AwA635Fq/7D8y38HbVZiE8zHJKq7rtGYlnnnkmdqlF85s9HEZ0nH/++Y3fucx4NFvq6HSPR6sZD63zH/7hH0RvoW3HAeHRrndO+jvCwwsXiSEAAYRHsj7QdHPpxRdfPGlvg700Ed3joVU/+uijjX0W0XMrfIVHdNDWevV35kyM6B4Ps5fjYx/7WOOtm+uuu65Bwi4nbs9FdKklKjSieziieOP+rnWaT5ZLLXF7Y+Lcj/DweigQHl64SAwBCCA8kvWBpq/TRpcR9A0R+w0P+60WrTr6d2OOr/DQfDpomzdgdNnjZz/7WdO3WjS9LjuYzaVmmWTRokUTG0ftJRT7rRZ7xsOIFdNuzT9nzhy55pprYpdaNH30rRZTdqebS9vt8TAbStttgEV4eD0UCA8vXCSGAAQQHsn6gPNSS7LiyVUkAYSHF32EhxcuEkMAAgiPZH0A4ZGMWxC5EB5ebkJ4eOEiMQQggPBI1gcQHsm4BZEL4eHlJoSHFy4SQwACCI9kfQDhkYxbELkQHl5uQnh44SIxBCCA8EjWBwoVHro58gtf+ILcf//9Mm/evLMOB0vWJHIZAggPr76A8PDCRWIIQADhkawPBCc8om/JJGt2PXIhPLz8jPDwwkViCEAA4ZGsD5RGeMRdchbXJISHu6MRHu6sTADxykFiCECg7gS4nTZBDyiN8IhbarHP8zDncjz55JOTjms3R4fbN9PaZ3jEMdFy7Ztp7fTRszmit9/q0pDelaK/t88EMeeOtKs7gY8SZ0F4eKFjxsMLF4khAAFmPJL1gdIKD3P5mzksy5wKqrfH2rfZarOjsyBxJ6vaeKI300ZvfdW0esNt3A20V155ZUN4mMPUNI3efmtOTNWyDxw40PLW2GSu8s+F8PBihvDwwkViCEAA4ZGsD5RWeESPRjfNi1tqaXZT7NKlS2NPHY27Xddsco0u+dhp7c2wzZaGWt3TksxFyXMhPLzYITy8cJEYAhBAeCTrA6UVHtoce6nFLHkcP378rBmP6OyIydvsIruo8FAxs2bNGrn99ttFBYVdr5ZljoNvJjyix8c3u6k3mYuS50J4eLFDeHjhIjEEIIDwSNYHSi08TJPsC9wuv/zyWOFhX8rW7mbZVjMeuofEXippN+MRXdZhxiNZRyxBLoRHCZyACRAIjACbSxM4rLTCY9u2baL7OXQGwhYS5jI4exkluhfDZY+HsjL7NGxxYf+3qff8889vpI2b8YgKjWZLRAl803EWZjy8ECI8vHCRGAIQYMYjWR8orfBodfut/bekb7WYt1AUW/TNFd1AumfPHjE31OqNtc2Eh33zrZaleY8ePSoqQPr6+pJ5JaVcCA8vkAgPL1wkhgAEEB7J+kChwiOZyZ3nii61dF5iOUtAeHj5BeHhhYvEEIAAwiNZH0B4JOMWRC6Eh5ebEB5euEgMAQggPJL1gVoKj2SowsuF8PDyGcLDCxeJIQABhEeyPoDwSMYtiFwIDy83ITy8cJEYAhBAeCTrAwiPZNyCyIXw8HITwsMLF4khAAGER7I+gPBIxm0iV5nO7Yg2BeHh5VyEhxcuEkMAAgiPZH0A4eHBzeW4do/iMk+K8PBCjPDwwkViCEAA4ZGsDyA8PLjFCQ+P7LknRXh4IUd4eOEiMQQggPBI1gcKFR7Rw7fMnSjaFPu+FPv3ejDX9u3bG639wQ9+0Ph3165dsnPnTjGHgunPerusKWdkZERee+01eeSRRxqHgj3xxBONE1GNkNixY0cjbfQgMb04Tm+i1d/r/Ssf+MAH5O67754grYeXzZ8/v2Gr2qUfvTlXT1d96KGHGj+bupK5p7NcCA8vfggPL1wkhgAEEB7J+kBhwiN6HLmar8ekX3rppY1r5p9//vnG1fL6uemmm8QcW64D/D333DMxoOvPV199dUN8qNiwr7ifNm1aQxQMDQ1NSm/KfvHFFxvla77oset6PLqeQqrCwxyt3m6pxQgPFSNqu9Zf5Afh4UUf4eGFi8QQgADCI1kfKEx4NLvpNe6CN3sD5zPPPDMhSnRgj27ujP7c6kK46NX27S6EcxUeKlTMjEsyt6STC+HhxRHh4YWLxBCAAMIjWR8oVHjoNfQPPPDApDtNjPBYsWLFxOCtIsWk7VR4qHhYs2ZNozwVHvaSjiI0yzpxwgjhkayTBZIL4RGIozATAiUiwO20CZxRqPDQPRT3339/QwCYT54zHk8++aQcOHBgYlmEGY8EPag6WRAe1fElLYFAXgQQHglIFyY8ons89OetW7eKznToHg/9b92vMX369LP2eJg9GkmWWmxxYf931J64GY92okj56+ZSlloS9MTisyA8ivcBFkAgNAIIjwQeK0x4qK3Rt0pc32rxFR7mbRetM/rmim4g3bNnT+Ntlzlz5siSJUsawqHZHhTdQ6Jp9NPsrRaER4KeWHwWhEfxPsACCIRGAOGRwGOFCo8E9npniW4u9S4g4AxsLvVyHsLDCxeJIQABNpcm6wMIj2TcgsiF8PByE8LDCxeJIQABhEeyPlB54ZEMSzVyITy8/Ijw8MJFYghAAOGRoA90d3efOHToUM/MmTMT5CZLmQkcPXpU96yMjo2NFXuKWZkhTbYN4RGOr7AUAmUhwB4PX0/09fX9cmhoaOFFF13km5X0JSfw3HPP6amre4eHh99XclPLYh7CoyyewA4IhEMA4eHrq66urg1r16790saNG8/1zUv6chNYt27dG5s2bfrG+Pj4+nJbWhrrEB6lcQWGQCAYAgiPBK5a0NPT89LBgwe7WW5JQK+kWXSZZe7cuWOjo6MXiMi+kppZNrMQHmXzCPZAoPwEEB5JfDRjxoyH+/v7V2zZsmV6kvzkKR+BlStXHh8aGtp67NixG8pnXWktQniU1jUYBoHSEkB4JHWN7vUYGBhYuH49s/JJGZYl34YNG2RwcJC9Hf4OQXj4MyMHBOpOAOHRQQ84r6+v79lly5bNGxwcnM6ySwckC8qqyysDAwPHt2/fvn94ePgSEXm1IFNCrRbhEarnsBsCxRFAeHTKXpddTp48+dlVq1ZNWb58+bl6jDgipFOq2eVXsaHHvW/btu2NzZs3n5o6dep3WF5JzBvhkRgdGSFQWwIIj5Rcv6Crq2vFrFmz+kdGRuaPjY31pFQuxaRMoLu7e7S3t/eVI0eODI2Pj29lI2lHgBEeHeEjMwRqSQDhUUu302gIpEMA4ZEOR0qBQJ0IIDzq5G3aCoGUCSA8UgZKcRCoAQGERw2cTBMhkBUBhEdWZCkXAtUlgPCorm9pGQQyJ4DwyBwxFUCgcgQQHpVzKQ2CQH4EEB75saYmCFSFAMKjKp6kHRAogADCowDoVAmBwAkgPAJ3IOZDoEgCCI8i6VM3BMIkgPAI029YDYFSEEB4lMINGAGBoAggPIJyF8ZCoFwEEB7l8gfWQCAEAgiPELyEjRAoKQGER0kdg1kQKDEBhEeJnYNpECg7AYRH2T2EfRAoHwGER/l8gkUQCIYAwiMYV2EoBEpDAOFRGldgCATCI4DwCM9nWAyBogkgPIr2APVDIGACCI+AnYfpECiIAMKjIPBUC4EqEEB4VMGLtAEC+RJAeOTLm9ogUCkCCI9KuZPGQCAXAgiPXDBTCQSqSQDhUU2/0ioIZEkA4ZElXcqGQMUJIDwq7mCaB4EMCCA8MoBKkRCoCwGER108TTshkB4BhEd6LCkJArUjgPConctpMAQ6JoDw6BghBUCgvgQQHvX1PS2HQFICCI+k5MgHAQgIwoNOAAEI+BJAePgSIz0EIDBBAOFBZ4AABHwJIDx8iZEeAhBAeNAHIACBxAQQHonRkRECEGDGgz4AAQj4EkB4+BIjPQQgwIwHfQACEEhMAOGRGB0ZIQABZjzoAxCAgC8BhIcvMdJDAALMeNAHIACBxAQQHonRkRECEGDGgz4AAQj4EkB4+BIjPQQgwIwHfQACEEhMAOGRGB0ZIQABZjzoAxCAgC8BhIcvMdJDAALMeNAHIACBxAQQHonRkRECEGDGgz4AAQj4EkB4+BIjPQQgwIwHfQACEEhMAOGRGB0ZIQABZjzoAxCAgC8BhIcvMdJDAALMeNAHIACBxAQQHonRkRECEGDGgz4AAQj4EkB4+BIjPQQgwIwHfQACEEhMAOGRGB0ZIQABZjzoAxCAgC8BhIcvMdJDAALMeNAHIACBxAQQHonRkRECEGDGgz4AAQj4EkB4+BIjPQQgwIwHfQACEEhMAOGRGB0ZIQABZjzoAxCAgC8BhIcvMdJDAALMeNAHIACBxAQQHonRkRECEGDGgz4AAQj4EkB4+BIjPQQgwIwHfQACEEhMAOGRGB0ZIQABZjzoAxCAgC8BhIcvMdJDAALMeNAHIACBxAQQHonRkRECEGDGgz4AAQj4EkB4+BKrcPp5IvLhWbNmXdLV1fWB0dHR80ZHR2e8+eab55xzzjlv9vT0HOvp6Xl1fHz8348cOfKsiPxURPZXmAdNa08A4dGeESkgAIHJBBAe9Aj53OzZsz9/4sSJhZdeeukbH/7wh3svuOACefe73y2zZ8+Wt73tbfL73/9eDh8+LL/+9a/lpZdekp/+9KcjP/nJT86dNm3a3sOHD39LRP4RjrUkgPCopdtpNAQ6IoDw6Ahf2Jlv6O3tvetP//RPz/385z//zo9//OPerfnRj34k3/rWt373b//2b2+MjIzcIiIPexdChpAJIDxC9h62Q6AYAgiPYrgXWusHZs+e/Y8LFiyYf/fdd89csmRJx8bs2rVL/uZv/ubovn37Xjl8+PDnROTfOy6UAkIggPAIwUvYCIFyEUB4lMsfmVujouDbDz74oNx4442pV/bQQw/J6tWrtdxrWX5JHW8ZC0R4lNEr2ASBchNAeJTbP6la95Xzzjvv//zwhz/s/dCHPpRqwXZhL7zwgnziE58YefXVV78uIl/NrCIKLgMBhEcZvIANEAiLAMIjLH8ltvYrf/Inf/LFnTt3vvP8889PXIhrxgMHDsjFF1/8u//8z/+8B/HhSi3IdAiPIN2G0RAolADCo1D8+VT+ufPOO2/whRde6M1DdJgmqfj40Ic+pDMfAyy75OPoAmpBeBQAnSohEDgBhEfgDmxn/gdE5MV//dd/VRHQLm3qf9dllz/7sz/Tcj/IhtPU8ZahQIRHGbyADRAIiwDCIyx/+Vk7e/bsf7/jjjven8VGUldLdMPpbbfd9ovDhw+rCOJTLQIIj2r5k9ZAIA8CCI88KBdUxw2LFy/+2q5du2b61L979275/ve/Lzt27JDf/OY3jcPD9BCxd73rXXLZZZfJpz/9aVm8eLFPkbJkyZKju3fv/lvO+fDCFkJihEcIXsJGCJSLAMKjXP5Iz5re3t7fPv3007Ndz+nYs2ePrFmzRvTfkZGRpob09vbKokWL5IEHHmj86/LRcz4++tGPHh4ZGfkDl/SkCYYAwiMYV2EoBEpDAOFRGleka8jnLr744o3PPvvsO12K/d73vief+cxnXJJOSvPd735XrrnmGqd8l1xyye927ty5jo2mTrhCSYTwCMVT2AmB8hBAeJTHF+lZons7Hn300fe7HIOuomPVqlVy/PhxbwOmT58umzdvdhIferz6ddddx14Pb8qlzoDwKLV7MA4CpSSA8CilWzozat7b3/72fceOHetpV4wuq7z//e9vl6zt33/xi184LbvMmDFj9PXXX1/ArbZtkYaSAOERiqewEwLlIYDwKI8vUrPkc5/4xCcGn3rqqd52JS5dulR0/0WnH91H8vzzz7ct5oorrhj54Q9/yLkebUkFkwDhEYyrMBQCpSGA8CiNK1IyZNasWY9v2LDh0+1eodW3Vz7ykY+03EjqapJuOP3xj3/c9m0XfbV2/fr13z9y5MhVrmWTrtQEEB6ldg/GQaCUBBAepXRLB0b19fX9fz/60Y/e1+5tFr3MTYVAWh8VOnr5XKuPzq58/OMf/+Xw8PD/k1a9lFMoAYRHofipHAJBEkB4BOm2Fka//e1v1+vp297J8t73vlf++7//O7Xm/9Ef/ZH86le/almeHqO+YMGC373++uteZ4ukZiQFpU0A4ZE2UcqDQPUJIDyq5uNzzjnn5Ouvv36OHvrV6tPT09M4HCytj9Y3Ojrasjit7+1vf/ubb7755tS06qWcQgkgPArFT+UQCJIAwiNIt7U2+tSpU+rX1p8pU6a0S+L9d49606/c21oypEAA4ZECRIqAQM0IIDyq5nBmPKrm0VK3B+FRavdgHARKSQDhUUq3dGAUezw6gEdWXwIID19ipIcABBAeVesDvNVSNY+Wuj0Ij1K7B+MgUEoCCI9SuqUDozjHowN4ZPUlgPDwJUZ6CEAA4VHBPsDJpRV0akmbhPAoqWMwCwIlJoDwKLFzkprGXS1JyZHPlwDCw5cY6SEAAYRHFfsAt9NW0aulbBPCo5RuwSgIlJoAwqPU7klu3Ocuvvjijc8+++w7XYr43ve+J5/5zGdckk5K893vfleuueYap3yXXHLJ73bu3LlORP7RKQOJQiCA8AjBS9gIgXIRQHiUyx/pWdPb2/vbp59+ena7O1tMjXv27JE1a9aI/jsyMtLUEL0QbtGiRfLAAw80/nX56B0tH/3oRw+PjIz8gUt60gRDAOERjKswFAKlIYDwKI0r0jfkhsWLF39t165dXvei6K213//+92XHjh3ym9/8pnGsuh6H/q53vUsuu+wy+fSnP932FtpoU5YsWXJ09+7dfysiD6ffTEoskADCo0D4VA2BQAkgPAJ1nJPZutfjjjvueL/eHFvUR2/Ave22235x+PDhDxRlA/VmRgDhkRlaCoZAZQkgPCrr2rcapoP9i//6r/8qH/rQh3Jv6gsvvCB/9md/pvV+UET+PXcDqDBrAgiPrAlTPgSqRwDhUT2fntWiz5133nmDL7zwQu/555+fW3MPHDigYmfk1VdfHWBDaW7Y864I4ZE3ceqDQPgEEB7h+9CpBV/5kz/5ky/u3LnznXmIDxUdF1988e/+8z//8x4R+aqThSQKkQDCI0SvYTMEiiWA8CiWf661f+W88877Pz/84Q97s1x20eWVT3ziEzrT8XVER67+LaIyhEcR1KkTAmETQHiE7T9v6z8nIt9+8MEHJYsNp7qRdPXq1WrUtSyvePsmxAwIjxC9hs0QKJYAwqNY/oXU/oHZs2f/44IFC+bffffdM13P+WhlqZ7T8Td/8zdH9+3b98rhw4dV3LCRtBDX5l4pwiN35FQIgeAJIDyCd2HyBtzQ29t715/+6Z+e+/nPf/6dH//4x71L+tGPfiTf+ta3fvdv//Zvb4yMjNzCOR3eCEPPgPAI3YPYD4H8CSA88mdeuho/N3v27M+fOHFi4aWXXvrGhz/84d4LLrhA3v3ud8vs2bMbh4fpIWKHDx+WX//61/LSSy/JT3/605Gf/OQn506bNm3v4cOHv8WySul8mpdBCI+8SFMPBKpDAOFRHV923JJ5IvLhWbNmXdLV1fWB0dHR80ZHR2e8+eab55xzzjlv9vT0HOv5/9uxY+SEgRgKoL+kzJHCvckkN+AOFLTmBJ509JKNGXZfv7u2nlT80el0X9f1uizLT5JLktvmr3rgkwUEj0/unn8n8B4BweM97r5KYAgBwWOINiqCwKECgseh3D5GYCwBwWOsfqqGwBECgscRyr5BYFABwWPQxiqLwAsFBI8X4nqawOgCgsfoHVYfgf0FBI/9Tb1IYBoBwWOaViuUwG4CgsdulB4iMJ+A4DFfz1VMYKuA4LFV0H0CEwsIHhM3X+kEmgKCRxPONQIEEsHDFBAgUBUQPKpizhMg8BQQPAwDAQJVAcGjKuY8AQKChxkgQKAtIHi06VwkQMDGwwwQIFAVEDyqYs4TIGDjYQYIEGgLCB5tOhcJELDxMAMECFQFBI+qmPMECNh4mAECBNoCgkebzkUCBGw8zAABAlUBwaMq5jwBAjYeZoAAgbaA4NGmc5EAARsPM0CAQFVA8KiKOU+AgI2HGSBAoC3wDB6/Sb7bz7hIgMCMAo8kXzMWrmYCBNoCf0nO/5Xnuw8TdBvVAAAADmVYSWZNTQAqAAAACAAAAAAAAADSU5MAAAAASUVORK5CYII=;" vertex="1" parent="1">
          <mxGeometry x="120" y="40" width="542" height="681" as="geometry" />
        </mxCell>
        <mxCell id="1OlWjO24hxwoXsdfYWza-3" value="" style="endArrow=classic;html=1;rounded=0;" edge="1" parent="1">
          <mxGeometry width="50" height="50" relative="1" as="geometry">
            <mxPoint x="256" y="611" as="sourcePoint" />
            <mxPoint x="256" y="661" as="targetPoint" />
          </mxGeometry>
        </mxCell>
      </root>
    </mxGraphModel>
  </diagram>
</mxfile>
